<?xml version="1.0" encoding="UTF-8"?><svg id="Calque_2" xmlns="http://www.w3.org/2000/svg" viewBox="0 0 325.28 103.06"><path d="m39.72,39.85c.82-1.46,1.67-2.9,2.44-4.38,2.3-4.39,4.57-8.8,6.86-13.19.32-.62.71-1.2,1.21-2.03,4.54,3.76,8.95,7.43,13.52,11.22-.72,10.06-1.44,20.16-2.16,30.13,1.94,1.39,8.23,3.93,10.21,4.12.87-13.77,1.74-27.54,2.63-41.49,4.71-.58,9.26-1.1,14.05-1.21v13.67c2.38-1.5,3.98-3.36,5.79-4.96,1.92-1.69,3.77-3.46,5.66-5.18,1.81-1.66,3.63-3.31,5.62-5.14,3.22,4.7,6.27,9.16,9.5,13.87,3.46-4.03,6.49-8.11,9.89-12.17,3.91,4.42,7.7,8.72,11.58,13.11-1.37,1.83-2.65,3.53-4.25,5.68,1.66-.46,2.54-1.25,3.52-1.84,1.03-.62,2.04-1.27,3.05-1.91,1.08-.68,2.16-1.38,3.23-2.06,1.01-.64,2.02-1.29,3.04-1.92,1-.63,2.01-1.25,3.36-2.09.35,5.08-.27,9.81-.32,14.53-.06,4.76-.3,9.53-.06,14.4.25-.53.55-1.05.75-1.6,2.51-7.25,5.01-14.5,7.49-21.76.34-1,.77-1.86,1.68-2.53,6.03-4.48,12.03-9.01,18.04-13.52.25-.19.54-.31.93-.53,1.7,1.52,2.77,3.49,4.12,5.24,1.32,1.71,2.58,3.46,3.87,5.19,1.33,1.78,2.66,3.56,4.18,5.61,3.85-6.19,7.55-12.13,11.4-18.31.41.54.71.86.92,1.22,2.62,4.58,5.21,9.17,7.86,13.74.55.95.72,1.91.66,2.97-.25,4.63-.47,9.26-.7,13.89-.23,4.79-.46,9.58-.68,14.37-.03.62.05,1.24.09,2.11,2.82-.41,5.39-1.16,8.23-1.91.59-7.07.71-14.17,1.09-21.24.37-7.09.7-14.19,1.07-21.55,4.81.52,9.33,1.31,14.11,2.12.76,16.41,1.19,32.75,1.9,49.19,1.03-.09,1.23-.88,1.58-1.43,3.16-4.91,6.29-9.83,9.43-14.75.51-.8,1.05-1.58,1.72-2.6,5.35,5.68,10.23,11.54,15.43,17.09.16-.09.32-.18.48-.27-1.42-7.34-2.85-14.68-4.31-22.24h-19.96c-.82-4.58-1.23-8.98-1.65-13.45,5.22-5.1,10.36-10.12,15.58-15.22,8.31-.36,16.65-1.05,25.37-1.23-2.56,6.95-5.5,13.39-8.06,20.17,2.32,1.47,4.53,2.88,6.91,4.39.39-.57.79-1.04,1.07-1.57,2.2-4.08,4.35-8.19,6.6-12.24.44-.8,1.1-1.61,1.86-2.08,6.92-4.31,13.89-8.54,20.84-12.79.27-.16.57-.27.84-.4,1.2,1.35,9.71,18.03,10.83,21.28-6.52,8.49-13.13,17.09-19.86,25.85,1.34,1.11,2.56,2.13,3.79,3.15-.11.17-.21.33-.32.5,7.19.87,14.37,1.74,22.01,2.66-3.61,4.22-7.22,7.91-10.69,11.71-3.56,3.89-7.16,7.75-10.74,11.63-3.51,3.8-7.03,7.59-10.97,11.22.75-6.92,1.5-13.85,2.26-20.82-2.38-1.86-4.61-3.68-6.92-5.38-1.29-.95-2.06-2.06-2.48-3.63-2.23-8.34-4.57-16.64-6.87-24.96-.21-.76-.45-1.51-.88-2.25-.92,8.04-1.21,16.1-1.9,24.43-7.05,5.17-14.25,10.45-21.53,15.79-6.55-4.02-12.94-7.94-19.37-11.88-4.42,1.96-8.79,3.9-13.39,5.94-1.31-2.97-2.55-5.8-3.91-8.88-1.7.97-2.68,2.44-3.91,3.61-1.27,1.21-2.46,2.52-3.67,3.79-1.21,1.26-2.42,2.53-3.58,3.74-1.81-.87-9.75-7.2-12.46-9.89,0-2.1,0-4.34,0-6.57-.01-5.84-.08-11.68-.02-17.51.02-1.75-.38-3.26-1.31-4.74-1.28-2.02-2.4-4.13-3.6-6.22-1.5,1.04-16.39,18.87-18.1,21.68,1.32,1.06,2.68,2.14,4.02,3.22,5.62.18,11.18.36,17.14.56-4.55,6.59-9.12,12.71-13.61,19.03-4.1-.52-8.13-1.04-12.29-1.57-6.04-5.8-12.14-11.67-18.33-17.63-.77.85-.57,1.76-.61,2.57-.17,3.99-.29,7.99-.44,11.98-.03.71-.1,1.42-.15,2.07-1.73.64-11.66,1.33-14.63,1.04-.65-.83-.38-1.82-.38-2.75-.05-10.64-.07-21.27-.1-31.91,0-.85,0-1.71,0-3.04-2.42,2.19-3.66,4.73-5.68,6.71-3.25-1.36-5.99-3.61-9.48-5.02-.99,12.07-1.96,23.89-2.92,35.64-2.21.52-13.08.68-14.82.23-.55-2.3-.22-4.69-.31-7.06-.08-2.4-.09-4.8-.11-7.2-.02-2.48-.03-4.96-.04-7.44,0-2.4-.02-4.8-.02-7.2,0-2.39,0-4.79,0-7.23-3.23-2.27-6.36-4.47-9.52-6.69-.82,2.08-1.19,15.19-.66,21.93,2.48,2.28,5.07,4.65,7.61,6.99-.74,1.76-10.06,14.37-12.92,17.5-1.6-.92-2.6-2.5-3.86-3.77-1.35-1.36-2.61-2.81-3.92-4.21-1.25-1.33-2.5-2.65-3.99-4.22-2.41,4.52-4.33,8.97-6.49,13.24-1.84-.31-16.37-6.76-19.03-8.45.31-10.86.61-21.86.93-32.94-2.4-1.34-4.69-2.62-6.97-3.9l.08.08Zm253.29,15.67c.7.78,1.34,1.49,2.16,2.41,3.09-4.39,5.95-8.46,8.9-12.66-3.34-3.21-6.53-6.28-9.73-9.35-.18.05-.35.1-.53.14-.28,6.4-.55,12.81-.81,19.46Zm-118.77-9.8c-1.89-1.87-9.18-6.84-11.09-7.55-.18,5.22.37,10.35.27,15.55,1.11.77,2.13,1.49,3.35,2.34,2.58-3.58,5.04-6.98,7.47-10.34Zm95.53-6.13c-5.31-3.2-10.62-6.19-16.28-9.18v12.45c5.56-.82,10.9-1.99,16.28-3.27Z" style="fill:#fff; stroke-width:0px;"/><path d="m39.64,39.76c-.1.37-.12.78-.3,1.11-1.66,3.18-3.35,6.35-5.09,9.65-2.97.49-5.93.97-9.19,1.51,5.62,16.27,11.15,32.31,16.78,48.59-.8,0-1.28.11-1.68-.02-9.26-3-18.52-6.02-27.77-9.04-.45-.15-.87-.37-1.53-.66,1.24-4.75,3-9.27,4.4-14.02-5.04-11.5-10.11-23.05-15.25-34.77C6.7,28.15,13.42,14.14,20.2,0c11.19,3.47,22.15,6.88,33.13,10.28-.69,1.64-7.92,9.78-12.19,13.75-6.28-1.44-12.7-2.91-19.42-4.45-.46,6.78-.9,13.27-1.34,19.69,2.02.58,14.17.89,19.34.56l-.08-.08Z" style="fill:#fff; stroke-width:0px;"/><path d="m135.58,23.82c10.91-6.87,21.49-13.53,32.25-20.3-.65,1.88-16.88,25.53-19.34,28.27-4.15-2.56-8.33-5.14-12.91-7.97Z" style="fill:#fff; stroke-width:0px;"/></svg>