<?xml version="1.0" encoding="utf-8"?>
<!-- Generator: Adobe Illustrator 28.0.0, SVG Export Plug-In . SVG Version: 6.00 Build 0)  -->
<svg version="1.1" id="Calque_2_00000102538780284599564290000016990760631571573918_"
	 xmlns="http://www.w3.org/2000/svg" xmlns:xlink="http://www.w3.org/1999/xlink" x="0px" y="0px" viewBox="0 0 325.3 103.1"
	 enable-background="new 0 0 325.3 103.1" xml:space="preserve">
<g>
	<path fill="#FFFFFF" d="M303.3,65.9c0.1-0.2,0.2-0.3,0.3-0.5c-1.2-1-2.5-2-3.8-3.1c6.7-8.8,13.3-17.4,19.9-25.9
		c-1.1-3.2-9.6-19.9-10.8-21.3c-0.3,0.1-0.6,0.2-0.8,0.4c-6.9,4.2-13.9,8.5-20.8,12.8c-0.8,0.5-1.4,1.3-1.9,2.1
		c-2.2,4.1-4.4,8.2-6.6,12.2c-0.3,0.5-0.7,1-1.1,1.6c-2.4-1.5-4.6-2.9-6.9-4.4c2.6-6.8,5.5-13.2,8.1-20.2
		c-8.7,0.2-17.1,0.9-25.4,1.2c-5.2,5.1-10.4,10.1-15.6,15.2c0.4,4.5,0.8,8.9,1.6,13.5h20c1.5,7.6,2.9,14.9,4.3,22.2
		c-0.2,0.1-0.3,0.2-0.5,0.3c-5.2-5.5-10.1-11.4-15.4-17.1c-0.7,1-1.2,1.8-1.7,2.6c-3.1,4.9-6.3,9.8-9.4,14.8
		c-0.4,0.5-0.6,1.3-1.6,1.4c-0.7-16.4-1.1-32.8-1.9-49.2c-4.8-0.8-9.3-1.6-14.1-2.1c-0.4,7.4-0.7,14.5-1.1,21.5
		c-0.4,7.1-0.5,14.2-1.1,21.2c-2.8,0.8-5.4,1.5-8.2,1.9c0-0.9-0.1-1.5-0.1-2.1c0.2-4.8,0.5-9.6,0.7-14.4c0.2-4.6,0.5-9.3,0.7-13.9
		c0.1-1.1-0.1-2-0.7-3c-2.6-4.6-5.2-9.2-7.9-13.7c-0.2-0.4-0.5-0.7-0.9-1.2c-3.9,6.2-7.5,12.1-11.4,18.3c-1.5-2-2.8-3.8-4.2-5.6
		c-1.3-1.7-2.5-3.5-3.9-5.2c-1.3-1.8-2.4-3.7-4.1-5.2c-0.4,0.2-0.7,0.3-0.9,0.5c-6,4.5-12,9-18,13.5c-0.9,0.7-1.3,1.5-1.7,2.5
		c-2.5,7.3-5,14.5-7.5,21.8c-0.2,0.5-0.5,1.1-0.8,1.6c-0.2-4.9,0-9.6,0.1-14.4c0-4.7,0.7-9.4,0.3-14.5c-1.4,0.8-2.4,1.5-3.4,2.1
		s-2,1.3-3,1.9c-1.1,0.7-2.1,1.4-3.2,2.1c-1,0.6-2,1.3-3,1.9c-1,0.6-1.9,1.4-3.5,1.8c1.6-2.2,2.9-3.9,4.2-5.7
		c-3.9-4.4-7.7-8.7-11.6-13.1c-3.4,4.1-6.4,8.1-9.9,12.2c-3.2-4.7-6.3-9.2-9.5-13.9c-2,1.8-3.8,3.5-5.6,5.1
		c-1.9,1.7-3.7,3.5-5.7,5.2c-1.8,1.6-3.4,3.5-5.8,5V23c-4.8,0.1-9.3,0.6-14,1.2c-0.9,14-1.8,27.7-2.6,41.5c-2-0.2-8.3-2.7-10.2-4.1
		c0.7-10,1.4-20.1,2.2-30.1c-4.6-3.8-9-7.5-13.5-11.2c-0.5,0.8-0.9,1.4-1.2,2c-2.3,4.4-4.6,8.8-6.9,13.2c-0.8,1.5-1.6,2.9-2.4,4.4
		c2.3,1.3,4.5,2.5,6.9,3.9c-0.3,11.1-0.6,22.1-0.9,32.9c2.7,1.7,17.2,8.1,19,8.5c2.2-4.3,4.1-8.7,6.5-13.2c1.5,1.6,2.7,2.9,4,4.2
		c1.3,1.4,2.6,2.9,3.9,4.2c1.3,1.3,2.3,2.8,3.9,3.8c2.9-3.1,12.2-15.7,12.9-17.5c-2.5-2.3-5.1-4.7-7.6-7C88,53,88.3,39.9,89.2,37.8
		c3.2,2.2,6.3,4.4,9.5,6.7c0,2.4,0,4.8,0,7.2s0,4.8,0,7.2c0,2.5,0,5,0,7.4s0,4.8,0.1,7.2c0.1,2.4-0.2,4.8,0.3,7.1
		c1.7,0.5,12.6,0.3,14.8-0.2c1-11.8,1.9-23.6,2.9-35.6c3.5,1.4,6.2,3.7,9.5,5c2-2,3.3-4.5,5.7-6.7c0,1.3,0,2.2,0,3
		c0,10.6,0,21.3,0.1,31.9c0,0.9-0.3,1.9,0.4,2.8c3,0.3,12.9-0.4,14.6-1c0-0.6,0.1-1.4,0.2-2.1c0.2-4,0.3-8,0.4-12
		c0-0.8-0.2-1.7,0.6-2.6c6.2,6,12.3,11.8,18.3,17.6c4.2,0.5,8.2,1.1,12.3,1.6c4.5-6.3,9.1-12.4,13.6-19c-6-0.2-11.5-0.4-17.1-0.6
		c-1.3-1.1-2.7-2.2-4-3.2c1.7-2.8,16.6-20.6,18.1-21.7c1.2,2.1,2.3,4.2,3.6,6.2c0.9,1.5,1.3,3,1.3,4.7c-0.1,5.8,0,11.7,0,17.5
		c0,2.2,0,4.5,0,6.6c2.7,2.7,10.6,9,12.5,9.9c1.2-1.2,2.4-2.5,3.6-3.7c1.2-1.3,2.4-2.6,3.7-3.8c1.2-1.2,2.2-2.6,3.9-3.6
		c1.4,3.1,2.6,5.9,3.9,8.9c4.6-2,9-4,13.4-5.9c6.4,3.9,12.8,7.9,19.4,11.9c7.3-5.3,14.5-10.6,21.5-15.8c0.7-8.3,1-16.4,1.9-24.4
		c0.4,0.7,0.7,1.5,0.9,2.2c2.3,8.3,4.6,16.6,6.9,25c0.4,1.6,1.2,2.7,2.5,3.6c2.3,1.7,4.5,3.5,6.9,5.4c-0.8,7-1.5,13.9-2.3,20.8
		c3.9-3.6,7.5-7.4,11-11.2c3.6-3.9,7.2-7.7,10.7-11.6c3.5-3.8,7.1-7.5,10.7-11.7C317.6,67.6,310.5,66.7,303.3,65.9z M166.8,56.1
		c-1.2-0.8-2.2-1.6-3.3-2.3c0.1-5.2-0.5-10.3-0.3-15.5c1.9,0.7,9.2,5.7,11.1,7.5C171.8,49.1,169.4,52.5,166.8,56.1z M253.5,42.9
		V30.4c5.7,3,11,6,16.3,9.2C264.4,40.9,259.1,42,253.5,42.9z M295.2,57.9c-0.8-0.9-1.5-1.6-2.2-2.4c0.3-6.7,0.5-13.1,0.8-19.5
		c0.2,0,0.4-0.1,0.5-0.1c3.2,3.1,6.4,6.1,9.7,9.4C301.1,49.5,298.3,53.5,295.2,57.9z"/>
	<path fill="#FFFFFF" d="M34.3,50.5c1.7-3.3,3.4-6.5,5.1-9.7c0.2-0.3,0.2-0.7,0.3-1c-5.3,0.4-17.3,0-19.3-0.5
		c0.4-6.4,0.9-12.9,1.3-19.7c6.7,1.5,13.1,3,19.4,4.5c4.3-4,11.5-12.1,12.2-13.8C42.3,6.9,31.4,3.5,20.2,0
		C13.4,14.1,6.7,28.2,0,42.1c5.1,11.7,10.2,23.3,15.2,34.8c-1.4,4.8-3.2,9.3-4.4,14c0.7,0.3,1.1,0.5,1.5,0.7c9.2,3,18.5,6,27.8,9
		c0.4,0.1,0.9,0,1.7,0C36.2,84.3,30.7,68.3,25.1,52C28.4,51.5,31.3,51,34.3,50.5z"/>
	<path fill="#FFFFFF" d="M167.8,3.5c-10.8,6.8-21.3,13.4-32.2,20.3c4.6,2.8,8.8,5.4,12.9,8C151,29,167.2,5.4,167.8,3.5z"/>
</g>
</svg>
